<svg width="32" height="32" xmlns="http://www.w3.org/2000/svg">
 <!-- Created with SVG Editor - http://github.com/mzalive/SVG Editor/ -->

 <g>
  <title>background</title>
  <rect fill="none" id="canvas_background" height="34" width="34" y="-1" x="-1"/>
  <g display="none" overflow="visible" y="0" x="0" height="100%" width="100%" id="canvasGrid">
   <rect fill="url(#gridpattern)" stroke-width="0" y="0" x="0" height="100%" width="100%"/>
  </g>
 </g>
 <g>
  <title>Layer 1</title>
  <g stroke="null" id="svg_11">
   <g stroke="null" transform="matrix(0.0726781950295924,0,0,0.0726781950295924,-0.2911950182690468,0.006773801184537853) " id="svg_5">
    <path stroke="null" id="svg_6" fill="#FFFFFF" d="m250.912627,292.874442l-69.557,0l0,-9.441c0,-10.531 2.12,-19.876 6.358,-28.034c4.239,-8.156 13.165,-18.527 26.783,-31.117l12.33,-11.176c7.322,-6.678 12.684,-12.973 16.09,-18.882c3.4,-5.907 5.105,-11.817 5.105,-17.727c0,-8.99 -3.084,-16.022 -9.248,-21.098c-6.166,-5.073 -14.773,-7.611 -25.819,-7.611c-10.405,0 -21.646,2.152 -33.719,6.455c-12.075,4.305 -24.663,10.693 -37.765,19.171l0,-60.5c15.541,-5.395 29.735,-9.375 42.582,-11.946c12.843,-2.568 25.241,-3.854 37.186,-3.854c31.342,0 55.232,6.392 71.678,19.171c16.439,12.783 24.662,31.439 24.662,55.973c0,12.591 -2.506,23.862 -7.516,33.815c-5.008,9.956 -13.553,20.649 -25.625,32.08l-12.332,10.983c-8.736,7.966 -14.451,14.354 -17.148,19.171s-4.045,10.115 -4.045,15.896l0,8.671zm-69.557,28.517l69.557,0l0,68.593l-69.557,0l0,-68.593z"/>
   </g>
   <circle stroke="null" transform="matrix(0.0726781950295924,0,0,0.0726781950295924,-0.2911950182690468,0.006773801184537853) " id="svg_7" fill="#F44336" r="218.515991" cy="218.373672" cx="224.634037"/>
   <g stroke="null" transform="matrix(0.0726781950295924,0,0,0.0726781950295924,-0.2911950182690468,0.006773801184537853) " id="svg_8">
    <rect stroke="null" id="svg_9" fill="#FFFFFF" height="262.18" width="65.545" transform="matrix(0.7071,-0.7071,0.7071,0.7071,-222.6202,340.6915) " y="98.799715" x="370.09453"/>
    <rect stroke="null" id="svg_10" fill="#FFFFFF" height="262.179" width="65.544" transform="matrix(0.7071,0.7071,-0.7071,0.7071,398.3889,-83.3116) " y="205.22047" x="57.809715"/>
   </g>
  </g>
 </g>
</svg>